<?xml version="1.0" encoding="UTF-8" standalone="no"?>
<!-- Created with Inkscape (http://www.inkscape.org/) -->

<svg
   width="256"
   height="256"
   version="1.1"
   viewBox="0 0 256 256"
   id="svg148"
   sodipodi:docname="icon.svg"
   xml:space="preserve"
   inkscape:version="1.2.2 (b0a8486541, 2022-12-01)"
   xmlns:inkscape="http://www.inkscape.org/namespaces/inkscape"
   xmlns:sodipodi="http://sodipodi.sourceforge.net/DTD/sodipodi-0.dtd"
   xmlns="http://www.w3.org/2000/svg"
   xmlns:svg="http://www.w3.org/2000/svg"><defs
     id="defs152"><style
       id="style451">.cls-1{fill:#8ab4f8;}.cls-2{fill:#4285f4;}.cls-3{fill:#246fdb;}</style></defs><sodipodi:namedview
     id="namedview150"
     pagecolor="#505050"
     bordercolor="#eeeeee"
     borderopacity="1"
     inkscape:showpageshadow="0"
     inkscape:pageopacity="0"
     inkscape:pagecheckerboard="0"
     inkscape:deskcolor="#505050"
     showgrid="false"
     inkscape:zoom="2.3367669"
     inkscape:cx="69.540525"
     inkscape:cy="78.741271"
     inkscape:window-width="1920"
     inkscape:window-height="991"
     inkscape:window-x="2560"
     inkscape:window-y="28"
     inkscape:window-maximized="1"
     inkscape:current-layer="layer1" /><g
     inkscape:groupmode="layer"
     id="layer1"
     inkscape:label="Folder"><g
       id="g394"
       transform="matrix(6,0,0,6,-16,-16)"><path
         d="M 40,12 H 22 L 18,8 H 8 C 5.8,8 4,9.8 4,12 v 8 h 40 v -4 c 0,-2.2 -1.8,-4 -4,-4 z"
         fill="#ffa000"
         id="path382"
         style="fill:#2e2e2e;fill-opacity:1" /><path
         d="M 40,12 H 8 c -2.2,0 -4,1.8 -4,4 v 20 c 0,2.2 1.8,4 4,4 h 32 c 2.2,0 4,-1.8 4,-4 V 16 c 0,-2.2 -1.8,-4 -4,-4 z"
         fill="#ffca28"
         id="path384"
         style="fill:#3d3d3d;fill-opacity:1" /></g></g><g
     inkscape:groupmode="layer"
     id="layer2"
     inkscape:label="GTM Icon"><g
       id="g473"
       transform="matrix(1.2387123,0,0,1.2387123,52.996063,64.002348)"><polygon
         class="cls-1"
         points="96.63,50.56 118.35,72.28 72.13,118.22 50.8,96.86 "
         id="polygon457" /><path
         class="cls-2"
         d="M 72.29,26.23 50.56,4.5 4.5,50.56 a 15.35,15.35 0 0 0 0,21.71 v 0 l 46.06,46.06 21.31,-21.4 -34.8,-35.48 z"
         id="path459" /><path
         class="cls-1"
         d="M 118.35,50.56 72.29,4.5 A 15.361895,15.361895 0 0 0 50.56,26.22 l 46.09,46.06 a 15.36,15.36 0 0 0 21.72,-21.72 z"
         id="path461" /><path
         class="cls-3"
         d="M 76.48,107.66 A 15.23,15.23 0 1 0 61.26,122.89 15.22,15.22 0 0 0 76.48,107.66 Z"
         id="path463" /></g></g></svg>
